<?xml version="1.0" encoding="iso-8859-1"?>
<!-- Generator: Adobe Illustrator 16.0.0, SVG Export Plug-In . SVG Version: 6.00 Build 0)  -->
<!DOCTYPE svg PUBLIC "-//W3C//DTD SVG 1.1//EN" "http://www.w3.org/Graphics/SVG/1.1/DTD/svg11.dtd">
<svg version="1.1" id="Capa_1" xmlns="http://www.w3.org/2000/svg" xmlns:xlink="http://www.w3.org/1999/xlink" x="0px" y="0px"
	 width="961.699px" height="961.699px" viewBox="0 0 961.699 961.699" style="enable-background:new 0 0 961.699 961.699;"
	 xml:space="preserve" fill="white">
<g>
	<g>
		<path d="M140.9,820.9c44.1,44.1,95.6,78.799,152.8,103C353,949,416,961.699,480.9,961.699c64.901,0,127.901-12.699,187.2-37.799
			C725.4,899.699,776.801,865,820.9,820.9s78.799-95.6,103-152.801c25.1-59.299,37.799-122.299,37.799-187.199
			C961.699,416,949,353,923.9,293.7c-24.201-57.3-58.9-108.7-103-152.8S725.4,62.1,668.1,37.9C608.801,12.8,545.801,0,480.9,0
			C416,0,353,12.8,293.7,37.9c-57.3,24.2-108.7,58.8-152.8,103c-44.1,44.1-78.8,95.6-103,152.8C12.8,353,0,416,0,480.9
			c0,64.9,12.8,127.9,37.9,187.199C62.1,725.4,96.7,776.801,140.9,820.9z M261.1,261.1c58.7-58.7,136.8-91,219.8-91
			c83,0,161.1,32.3,219.799,91c58.701,58.7,91,136.8,91,219.8c0,83-32.299,161.1-91,219.799c-58.699,58.701-136.799,91-219.799,91
			c-83,0-161.1-32.299-219.8-91C202.4,642,170.1,563.9,170.1,480.9C170.1,397.9,202.4,319.8,261.1,261.1z"/>
		<polygon points="378.4,251.5 378.4,710.301 705.5,480.9 		"/>
	</g>
</g>
<g>
</g>
<g>
</g>
<g>
</g>
<g>
</g>
<g>
</g>
<g>
</g>
<g>
</g>
<g>
</g>
<g>
</g>
<g>
</g>
<g>
</g>
<g>
</g>
<g>
</g>
<g>
</g>
<g>
</g>
</svg>
